P3
20 20 255
164 91  0      164 91  0      164 91  0      164 91  0      196 59  0      196 59  0      164 91  0      196 59  0      228 27  0      4   251 0      228 27  0      228 27  0      228 27  0      228 27  0      228 27  0      196 59  0      164 91  0      164 91  0      132 122 0      132 122 0      
164 91  0      164 91  0      164 91  0      164 91  0      196 59  0      196 59  0      164 91  0      196 59  0      4   251 0      36  219 0      36  219 0      36  219 0      36  219 0      36  219 0      36  219 0      4   251 0      228 27  0      228 27  0      164 91  0      132 122 0      
164 91  0      164 91  0      164 91  0      228 27  0      4   251 0      4   251 0      4   251 0      4   251 0      68  187 0      68  187 0      100 155 0      100 155 0      132 123 0      100 155 0      68  187 0      100 155 0      100 155 0      100 155 0      196 59  0      132 122 0      
196 59  0      196 59  0      196 59  0      4   251 0      68  187 0      68  187 0      68  187 0      68  187 0      164 91  0      164 91  0      228 27  0      196 59  0      228 27  0      132 123 0      68  187 0      100 155 0      100 155 0      100 155 0      196 59  0      132 122 0      
228 27  0      228 27  0      228 27  0      228 27  0      36  219 0      68  187 0      68  187 0      132 123 0      196 59  0      196 59  0      4   251 0      196 59  0      228 27  0      100 155 0      4   251 0      36  219 0      36  219 0      36  219 0      164 91  0      132 122 0      
4   251 0      36  219 0      36  219 0      68  187 0      164 91  0      196 59  0      228 27  0      36  219 0      36  219 0      4   251 0      68  187 0      4   251 0      36  219 0      164 91  0      68  187 0      68  187 0      4   251 0      4   251 0      164 91  0      132 122 0      
228 27  0      228 27  0      4   251 0      36  219 0      100 155 0      132 123 0      196 59  0      4   251 0      4   251 0      228 27  0      4   251 0      228 27  0      36  219 0      196 59  0      100 155 0      132 123 0      36  219 0      36  219 0      196 59  0      132 122 0      
196 59  0      196 59  0      4   251 0      36  219 0      100 155 0      164 91  0      228 27  0      36  219 0      36  219 0      164 91  0      196 59  0      164 91  0      68  187 0      228 27  0      164 91  0      196 59  0      164 91  0      68  187 0      36  219 0      132 122 0      
228 27  0      228 27  0      4   251 0      36  219 0      100 155 0      164 91  0      228 27  0      36  219 0      68  187 0      196 59  0      196 59  0      164 91  0      68  187 0      228 27  0      164 91  0      228 27  0      164 91  0      36  219 0      36  219 0      132 122 0      
4   251 0      228 27  0      4   251 0      36  219 0      68  187 0      132 123 0      164 91  0      196 59  0      228 27  0      100 155 0      68  187 0      68  187 0      228 27  0      164 91  0      100 155 0      228 27  0      164 91  0      68  187 0      68  187 0      132 122 0      
36  219 0      4   251 0      100 155 0      132 123 0      164 91  0      228 27  0      36  219 0      68  187 0      68  187 0      196 59  0      196 59  0      164 91  0      36  219 0      228 27  0      164 91  0      36  219 0      164 91  0      68  187 0      68  187 0      132 122 0      
36  219 0      228 27  0      68  187 0      100 155 0      100 155 0      132 123 0      196 59  0      4   251 0      4   251 0      164 91  0      164 91  0      132 123 0      4   251 0      228 27  0      196 59  0      196 59  0      132 123 0      36  219 0      36  219 0      164 91  0      
68  187 0      4   251 0      100 155 0      132 123 0      100 155 0      100 155 0      164 91  0      228 27  0      228 27  0      100 155 0      132 123 0      100 155 0      228 27  0      164 91  0      132 123 0      132 123 0      100 155 0      228 27  0      4   251 0      164 91  0      
36  219 0      4   251 0      100 155 0      196 59  0      100 155 0      100 155 0      196 59  0      196 59  0      196 59  0      68  187 0      100 155 0      68  187 0      196 59  0      196 59  0      164 91  0      164 91  0      100 155 0      228 27  0      228 27  0      164 91  0      
36  219 0      4   251 0      4   251 0      68  187 0      4   251 0      4   251 0      68  187 0      100 155 0      164 91  0      4   251 0      36  219 0      4   251 0      196 59  0      164 91  0      100 155 0      100 155 0      100 155 0      228 27  0      4   251 0      164 91  0      
4   251 0      228 27  0      4   251 0      36  219 0      228 27  0      4   251 0      68  187 0      132 123 0      164 91  0      36  219 0      68  187 0      36  219 0      196 59  0      164 91  0      100 155 0      68  187 0      36  219 0      228 27  0      228 27  0      164 91  0      
4   251 0      228 27  0      4   251 0      36  219 0      228 27  0      4   251 0      4   251 0      36  219 0      132 123 0      4   251 0      36  219 0      36  219 0      228 27  0      228 27  0      196 59  0      132 123 0      68  187 0      36  219 0      196 59  0      164 91  0      
228 27  0      196 59  0      228 27  0      4   251 0      228 27  0      4   251 0      36  219 0      68  187 0      164 91  0      36  219 0      36  219 0      68  187 0      4   251 0      4   251 0      196 59  0      164 91  0      68  187 0      36  219 0      4   251 0      164 91  0      
164 91  0      164 91  0      228 27  0      4   251 0      228 27  0      4   251 0      36  219 0      68  187 0      164 91  0      196 59  0      196 59  0      228 27  0      196 59  0      228 27  0      164 91  0      132 123 0      100 155 0      36  219 0      4   251 0      164 91  0      
132 122 0      132 122 0      132 122 0      164 91  0      164 91  0      164 91  0      196 59  0      196 59  0      196 59  0      228 27  0      228 27  0      228 27  0      36  219 0      4   251 0      36  219 0      4   251 0      228 27  0      164 91  0      196 59  0      164 91  0      
