P3
20 20 255
180 75  0      180 75  0      180 75  0      180 75  0      228 27  0      228 27  0      180 75  0      228 27  0      20  235 0      68  187 0      20  235 0      20  235 0      20  235 0      20  235 0      20  235 0      228 27  0      180 75  0      180 75  0      132 122 0      132 122 0      
180 75  0      180 75  0      180 75  0      180 75  0      228 27  0      228 27  0      180 75  0      228 27  0      68  187 0      116 139 0      116 139 0      116 139 0      116 139 0      116 139 0      116 139 0      68  187 0      20  235 0      20  235 0      180 75  0      132 122 0      
180 75  0      180 75  0      180 75  0      20  235 0      68  187 0      68  187 0      68  187 0      68  187 0      164 91  0      164 91  0      212 43  0      212 43  0      4   251 0      212 43  0      164 91  0      212 43  0      212 43  0      212 43  0      228 27  0      132 122 0      
228 27  0      228 27  0      228 27  0      68  187 0      164 91  0      164 91  0      164 91  0      164 91  0      52  203 0      52  203 0      148 107 0      100 155 0      148 107 0      4   251 0      164 91  0      212 43  0      212 43  0      212 43  0      228 27  0      132 122 0      
20  235 0      20  235 0      20  235 0      20  235 0      116 139 0      164 91  0      164 91  0      4   251 0      100 155 0      100 155 0      196 59  0      100 155 0      148 107 0      212 43  0      68  187 0      116 139 0      116 139 0      116 139 0      180 75  0      132 122 0      
68  187 0      116 139 0      116 139 0      164 91  0      52  203 0      100 155 0      148 107 0      244 11  0      244 11  0      196 59  0      36  219 0      196 59  0      244 11  0      52  203 0      164 91  0      164 91  0      68  187 0      68  187 0      180 75  0      132 122 0      
20  235 0      20  235 0      68  187 0      116 139 0      212 43  0      4   251 0      100 155 0      196 59  0      196 59  0      148 107 0      196 59  0      148 107 0      244 11  0      100 155 0      212 43  0      4   251 0      116 139 0      116 139 0      228 27  0      132 122 0      
228 27  0      228 27  0      68  187 0      116 139 0      212 43  0      52  203 0      148 107 0      244 11  0      244 11  0      180 75  0      228 27  0      180 75  0      36  219 0      148 107 0      52  203 0      100 155 0      52  203 0      164 91  0      116 139 0      132 122 0      
20  235 0      20  235 0      68  187 0      116 139 0      212 43  0      52  203 0      148 107 0      244 11  0      36  219 0      228 27  0      228 27  0      180 75  0      36  219 0      148 107 0      52  203 0      148 107 0      52  203 0      116 139 0      116 139 0      132 122 0      
68  187 0      20  235 0      68  187 0      116 139 0      164 91  0      4   251 0      52  203 0      100 155 0      148 107 0      84  171 0      36  219 0      36  219 0      148 107 0      52  203 0      212 43  0      148 107 0      52  203 0      164 91  0      164 91  0      132 122 0      
116 139 0      68  187 0      212 43  0      4   251 0      52  203 0      148 107 0      244 11  0      36  219 0      36  219 0      228 27  0      228 27  0      180 75  0      244 11  0      148 107 0      52  203 0      244 11  0      52  203 0      164 91  0      164 91  0      132 122 0      
116 139 0      20  235 0      164 91  0      212 43  0      212 43  0      4   251 0      100 155 0      196 59  0      196 59  0      180 75  0      180 75  0      132 123 0      196 59  0      148 107 0      100 155 0      100 155 0      4   251 0      116 139 0      116 139 0      180 75  0      
164 91  0      68  187 0      212 43  0      4   251 0      212 43  0      212 43  0      52  203 0      148 107 0      148 107 0      84  171 0      132 123 0      84  171 0      148 107 0      52  203 0      4   251 0      4   251 0      212 43  0      20  235 0      68  187 0      180 75  0      
116 139 0      68  187 0      212 43  0      100 155 0      212 43  0      212 43  0      100 155 0      100 155 0      100 155 0      36  219 0      84  171 0      36  219 0      100 155 0      100 155 0      52  203 0      52  203 0      212 43  0      20  235 0      20  235 0      180 75  0      
116 139 0      68  187 0      68  187 0      164 91  0      68  187 0      68  187 0      164 91  0      212 43  0      52  203 0      196 59  0      244 11  0      196 59  0      100 155 0      52  203 0      212 43  0      212 43  0      212 43  0      20  235 0      68  187 0      180 75  0      
68  187 0      20  235 0      68  187 0      116 139 0      20  235 0      68  187 0      164 91  0      4   251 0      52  203 0      244 11  0      36  219 0      244 11  0      100 155 0      52  203 0      212 43  0      164 91  0      116 139 0      20  235 0      20  235 0      180 75  0      
68  187 0      20  235 0      68  187 0      116 139 0      20  235 0      68  187 0      68  187 0      116 139 0      4   251 0      196 59  0      244 11  0      244 11  0      148 107 0      148 107 0      100 155 0      4   251 0      164 91  0      116 139 0      228 27  0      180 75  0      
20  235 0      228 27  0      20  235 0      68  187 0      20  235 0      68  187 0      116 139 0      164 91  0      52  203 0      244 11  0      244 11  0      36  219 0      196 59  0      196 59  0      100 155 0      52  203 0      164 91  0      116 139 0      68  187 0      180 75  0      
180 75  0      180 75  0      20  235 0      68  187 0      20  235 0      68  187 0      116 139 0      164 91  0      52  203 0      100 155 0      100 155 0      148 107 0      100 155 0      148 107 0      52  203 0      4   251 0      212 43  0      116 139 0      68  187 0      180 75  0      
132 122 0      132 122 0      132 122 0      180 75  0      180 75  0      180 75  0      228 27  0      228 27  0      228 27  0      20  235 0      20  235 0      20  235 0      116 139 0      68  187 0      116 139 0      68  187 0      20  235 0      180 75  0      228 27  0      180 75  0      
