P3
20 20 255
0   255 0      0   255 0      0   255 0      0   255 0      0   255 0      0   255 0      0   255 0      0   255 0      0   255 0      0   255 0      0   255 0      0   255 0      0   255 0      0   255 0      0   255 0      0   255 0      0   255 0      0   255 0      0   255 0      0   255 0      
0   255 0      0   255 0      0   255 0      0   255 0      0   255 0      0   255 0      0   255 0      0   255 0      0   255 0      0   255 0      0   255 0      0   255 0      0   255 0      0   255 0      0   255 0      0   255 0      0   255 0      0   255 0      0   255 0      0   255 0      
0   255 0      0   255 0      0   255 0      0   255 0      0   255 0      0   255 0      0   255 0      0   255 0      0   255 0      0   255 0      0   255 0      0   255 0      0   255 0      0   255 0      0   255 0      0   255 0      0   255 0      0   255 0      0   255 0      0   255 0      
0   255 0      255 0   0      255 0   0      255 0   0      255 0   0      255 0   0      0   255 0      0   255 0      0   255 0      0   255 0      0   255 0      0   255 0      0   255 0      0   255 0      0   255 0      0   255 0      0   255 0      0   255 0      0   255 0      0   255 0      
0   255 0      255 0   0      255 0   0      255 0   0      255 0   0      255 0   0      0   255 0      0   255 0      0   255 0      0   255 0      0   255 0      0   255 0      0   255 0      0   255 0      0   255 0      0   255 0      0   255 0      0   255 0      0   255 0      0   255 0      
0   255 0      255 0   0      255 0   0      255 0   0      255 0   0      255 0   0      0   255 0      0   255 0      0   255 0      0   255 0      0   255 0      0   255 0      0   255 0      0   255 0      0   255 0      0   255 0      0   255 0      0   255 0      0   255 0      0   255 0      
0   255 0      255 0   0      255 0   0      255 0   0      255 0   0      255 0   0      0   255 0      0   255 0      0   255 0      0   255 0      0   255 0      0   255 0      0   255 0      0   255 0      0   255 0      0   255 0      0   255 0      0   255 0      0   255 0      0   255 0      
0   255 0      255 0   0      255 0   0      255 0   0      255 0   0      255 0   0      0   255 0      0   255 0      0   255 0      0   255 0      0   255 0      0   255 0      0   255 0      0   255 0      0   255 0      0   255 0      0   255 0      0   255 0      0   255 0      0   255 0      
0   255 0      255 0   0      255 0   0      255 0   0      255 0   0      255 0   0      0   255 0      0   255 0      0   255 0      0   255 0      0   255 0      0   255 0      0   255 0      0   255 0      0   255 0      0   255 0      0   255 0      0   255 0      0   255 0      0   255 0      
0   255 0      255 0   0      255 0   0      255 0   0      255 0   0      255 0   0      0   255 0      0   255 0      0   255 0      0   255 0      0   255 0      0   255 0      0   255 0      0   255 0      0   255 0      0   255 0      0   255 0      0   255 0      0   255 0      0   255 0      
0   255 0      255 0   0      255 0   0      255 0   0      255 0   0      255 0   0      0   255 0      0   255 0      0   255 0      0   255 0      0   255 0      0   255 0      0   255 0      0   255 0      0   255 0      0   255 0      0   255 0      0   255 0      0   255 0      0   255 0      
0   255 0      255 0   0      255 0   0      255 0   0      255 0   0      255 0   0      0   255 0      0   255 0      0   255 0      0   255 0      0   255 0      0   255 0      0   255 0      0   255 0      0   255 0      0   255 0      0   255 0      0   255 0      0   255 0      0   255 0      
0   255 0      0   255 0      0   255 0      0   255 0      0   255 0      0   255 0      0   255 0      0   255 0      0   255 0      0   255 0      0   255 0      0   255 0      0   255 0      0   255 0      0   255 0      0   255 0      0   255 0      0   255 0      0   255 0      0   255 0      
0   255 0      0   255 0      0   255 0      0   255 0      0   255 0      0   255 0      0   255 0      0   255 0      0   255 0      0   255 0      0   255 0      0   255 0      0   255 0      0   255 0      0   255 0      0   255 0      0   255 0      0   255 0      0   255 0      0   255 0      
0   255 0      0   255 0      0   255 0      0   255 0      0   255 0      0   255 0      0   255 0      0   255 0      0   255 0      0   255 0      0   255 0      0   255 0      0   255 0      0   255 0      0   255 0      0   255 0      0   255 0      0   255 0      0   255 0      0   255 0      
0   255 0      0   255 0      0   255 0      0   255 0      0   255 0      0   255 0      0   255 0      0   255 0      0   255 0      0   255 0      0   255 0      0   255 0      0   255 0      0   255 0      0   255 0      0   255 0      0   255 0      0   255 0      0   255 0      0   255 0      
0   255 0      0   255 0      0   255 0      0   255 0      0   255 0      0   255 0      0   255 0      0   255 0      0   255 0      0   255 0      0   255 0      0   255 0      0   255 0      0   255 0      0   255 0      0   255 0      0   255 0      0   255 0      0   255 0      0   255 0      
0   255 0      0   255 0      0   255 0      0   255 0      0   255 0      0   255 0      0   255 0      0   255 0      0   255 0      0   255 0      0   255 0      0   255 0      0   255 0      0   255 0      0   255 0      0   255 0      0   255 0      0   255 0      0   255 0      0   255 0      
0   255 0      0   255 0      0   255 0      0   255 0      0   255 0      0   255 0      0   255 0      0   255 0      0   255 0      0   255 0      0   255 0      0   255 0      0   255 0      0   255 0      0   255 0      0   255 0      0   255 0      0   255 0      0   255 0      0   255 0      
0   255 0      0   255 0      0   255 0      0   255 0      0   255 0      0   255 0      0   255 0      0   255 0      0   255 0      0   255 0      0   255 0      0   255 0      0   255 0      0   255 0      0   255 0      0   255 0      0   255 0      0   255 0      0   255 0      0   255 0      
